<svg xmlns="http://www.w3.org/2000/svg"  viewBox="0 0 128 128" width="64px" height="64px"><path d="M 64 1 C 29.26 1 1 29.26 1 64 C 1 98.74 29.26 127 64 127 C 98.74 127 127 98.74 127 64 C 127 62.34 125.66 61 124 61 C 122.34 61 121 62.34 121 64 C 121 95.43 95.43 121 64 121 C 32.57 121 7 95.43 7 64 C 7 32.57 32.57 7 64 7 C 80.22 7 95.699219 14.02 106.44922 26 L 88.5 26 C 86.84 26 85.5 27.34 85.5 29 C 85.5 30.66 86.84 32 88.5 32 L 113.5 32 C 115.16 32 116.5 30.66 116.5 29 L 116.5 4 C 116.5 2.34 115.16 1 113.5 1 C 111.84 1 110.5 2.34 110.5 4 L 110.5 21.519531 C 98.64 8.5695313 81.72 1 64 1 z M 64.005859 27.695312 C 62.005859 27.695313 60.005703 28.210234 58.220703 29.240234 L 36.789062 41.609375 C 33.219062 43.669375 31 47.510859 31 51.630859 L 31 76.369141 C 31 80.489141 33.219062 84.330625 36.789062 86.390625 L 58.220703 98.759766 C 60.000703 99.789766 62 100.31055 64 100.31055 C 66 100.31055 67.999062 99.789766 69.789062 98.759766 L 91.220703 86.390625 C 94.790703 84.330625 97.009766 80.489141 97.009766 76.369141 L 97.009766 51.630859 C 97.009766 47.510859 94.790703 43.669375 91.220703 41.609375 L 69.789062 29.240234 C 68.004063 28.210234 66.005859 27.695312 64.005859 27.695312 z M 64 33.699219 C 64.97 33.699219 65.929062 33.949453 66.789062 34.439453 L 88.210938 46.800781 C 88.710938 47.090781 89.139531 47.449375 89.519531 47.859375 L 64.019531 62.269531 L 38.679688 47.650391 C 39.009687 47.330391 39.379297 47.040547 39.779297 46.810547 L 61.210938 34.439453 C 62.070937 33.939453 63.03 33.699219 64 33.699219 z M 37 53.599609 L 61 67.460938 L 61 93.449219 L 39.789062 81.199219 C 38.069063 80.199219 37 78.359141 37 76.369141 L 37 53.599609 z M 91 53.919922 L 91 76.369141 C 91 78.349141 89.930938 80.199453 88.210938 81.189453 L 67 93.449219 L 67 67.480469 L 91 53.919922 z"/></svg>