<svg xmlns="http://www.w3.org/2000/svg"  viewBox="0 0 64 64" width="32px" height="32px"><path d="M 14.419922 3 A 3.42 3.42 0 0 0 11 6.4199219 L 11 34 L 8 34 A 1 1 0 0 0 7 35 L 7 49 L 7 49.070312 A 1.08 1.08 0 0 0 7.3398438 49.75 L 7.3398438 49.800781 L 11 52.5 L 11 57.580078 A 3.42 3.42 0 0 0 14.419922 61 L 49.580078 61 A 3.42 3.42 0 0 0 53 57.580078 L 53 52.5 L 56.599609 49.800781 L 56.599609 49.75 A 1.08 1.08 0 0 0 56.939453 49.070312 L 56.939453 49 L 57 35 A 1 1 0 0 0 56 34 L 53 34 L 53 16 L 53 15.939453 A 1 1 0 0 0 53 15.730469 L 53 15.660156 A 1 1 0 0 0 52.820312 15.369141 L 41.820312 3.3691406 A 1 1 0 0 0 41.529297 3.1601562 L 41.470703 3.1601562 A 1 1 0 0 0 41.109375 3 L 14.419922 3 z M 14.419922 5 L 19 5 L 19 34 L 13 34 L 13 6.4199219 A 1.42 1.42 0 0 1 14.419922 5 z M 21 5 L 40 5 L 40 16 A 1 1 0 0 0 41 17 L 51 17 L 51 34 L 21 34 L 21 5 z M 42 6.5703125 L 49.730469 15 L 42 15 L 42 6.5703125 z M 9 36 L 55 36 L 55 48 L 9 48 L 9 36 z M 39.736328 37.189453 A 0.8 0.8 0 0 0 39.169922 37.449219 A 1.15 1.15 0 0 0 38.929688 38.240234 L 38.929688 44.859375 A 0.91 0.91 0 0 0 40 45.929688 L 44.189453 45.929688 A 1 1 0 0 0 44.839844 45.730469 A 0.65 0.65 0 0 0 45.060547 45.220703 A 0.67 0.67 0 0 0 44.830078 44.699219 A 0.93 0.93 0 0 0 44.179688 44.490234 L 40.650391 44.490234 L 40.650391 38.240234 A 1.13 1.13 0 0 0 40.429688 37.449219 A 0.83 0.83 0 0 0 39.789062 37.189453 A 0.8 0.8 0 0 0 39.736328 37.189453 z M 26.529297 37.210938 A 4.58 4.58 0 0 0 24.810547 37.509766 A 2.44 2.44 0 0 0 23.689453 38.359375 A 2.14 2.14 0 0 0 23.300781 39.619141 A 2.06 2.06 0 0 0 23.669922 40.869141 A 2.5 2.5 0 0 0 24.669922 41.660156 A 8.11 8.11 0 0 0 26.220703 42.169922 C 26.680703 42.276589 27.046979 42.37737 27.320312 42.470703 A 1.68 1.68 0 0 1 27.990234 42.880859 A 1 1 0 0 1 28.25 43.570312 A 1.09 1.09 0 0 1 27.769531 44.470703 A 2 2 0 0 1 26.509766 44.830078 A 2 2 0 0 1 25.599609 44.650391 A 1.44 1.44 0 0 1 25.060547 44.189453 A 3.48 3.48 0 0 1 24.710938 43.5 A 1.38 1.38 0 0 0 24.380859 42.980469 A 0.66 0.66 0 0 0 23.910156 42.800781 A 0.76 0.76 0 0 0 23.130859 43.570312 A 2.1 2.1 0 0 0 23.5 44.689453 A 2.79 2.79 0 0 0 24.5 45.609375 A 4.13 4.13 0 0 0 26.599609 46.089844 A 4.4 4.4 0 0 0 28.429688 45.740234 A 2.67 2.67 0 0 0 29.599609 44.740234 A 2.52 2.52 0 0 0 30 43.339844 A 2.37 2.37 0 0 0 29.789062 42.279297 A 2.05 2.05 0 0 0 29.150391 41.539062 A 4 4 0 0 0 28.150391 41.039062 A 13.06 13.06 0 0 0 26.830078 40.660156 L 26 40.439453 A 2.61 2.61 0 0 1 25.5 40.230469 A 1.18 1.18 0 0 1 25.109375 39.910156 A 0.72 0.72 0 0 1 24.970703 39.460938 A 0.86 0.86 0 0 1 25.380859 38.75 A 1.83 1.83 0 0 1 26.470703 38.449219 A 1.64 1.64 0 0 1 27.519531 38.720703 A 2.21 2.21 0 0 1 28.080078 39.480469 A 2 2 0 0 0 28.419922 39.970703 A 0.63 0.63 0 0 0 28.869141 40.119141 A 0.7 0.7 0 0 0 29.419922 39.869141 A 0.83 0.83 0 0 0 29.640625 39.310547 A 1.57 1.57 0 0 0 29.460938 38.609375 A 2.18 2.18 0 0 0 28.900391 37.929688 A 2.89 2.89 0 0 0 27.900391 37.410156 A 4.26 4.26 0 0 0 26.529297 37.210938 z M 31.378906 37.318359 A 1 1 0 0 0 30.820312 37.509766 A 0.66 0.66 0 0 0 30.589844 38.039062 A 0.67 0.67 0 0 0 30.810547 38.560547 A 1 1 0 0 0 31.470703 38.759766 L 33.369141 38.759766 L 33.369141 45 A 1.14 1.14 0 0 0 33.609375 45.800781 A 0.82 0.82 0 0 0 34.240234 46.060547 A 0.81 0.81 0 0 0 34.859375 45.800781 A 1.15 1.15 0 0 0 35.099609 45 L 35.099609 38.759766 L 37 38.759766 A 1 1 0 0 0 37.669922 38.560547 A 0.66 0.66 0 0 0 37.890625 38.039062 A 0.67 0.67 0 0 0 37.669922 37.519531 A 1 1 0 0 0 37 37.320312 L 31.470703 37.320312 A 1 1 0 0 0 31.378906 37.318359 z M 20.582031 44.289062 A 0.83 0.83 0 0 0 19.990234 44.550781 A 0.85 0.85 0 0 0 19.740234 45.169922 A 0.83 0.83 0 0 0 20 45.830078 A 0.91 0.91 0 0 0 20.630859 46.060547 A 0.88 0.88 0 0 0 21.240234 45.820312 A 0.84 0.84 0 0 0 21.5 45.169922 A 0.83 0.83 0 0 0 21.240234 44.550781 A 0.87 0.87 0 0 0 20.609375 44.289062 A 0.83 0.83 0 0 0 20.582031 44.289062 z M 13 50 L 19 50 L 19 59 L 14.419922 59 A 1.42 1.42 0 0 1 13 57.580078 L 13 50 z M 21 50 L 51 50 L 51 57.580078 A 1.42 1.42 0 0 1 49.580078 59 L 21 59 L 21 50 z"/></svg>